PathFileType	4	(X/Y/Z)	
DataRate	CameraRate	NumFrames	NumMarkers	Units	OrigDataRate	OrigDataStartFrame	OrigNumFrames
60	60	10	25	m	100	48	188
Frame#	Time	Nose				Neck				RShoulder				RElbow				RWrist				LShoulder				LElbow				LWrist				CHip				RHip				RKnee				RAnkle				LHip				LKnee				LAnkle				REye				LEye				REar				LEar				LBigToe				LSmallToe				LHeel				RBigToe				RSmallToe				RHeel			
X1	Y1	Z1	X2	Y2	Z2	X3	Y3	Z3	X4	Y4	Z4	X5	Y5	Z5	X6	Y6	Z6	X7	Y7	Z7	X8	Y8	Z8	X9	Y9	Z9	X10	Y10	Z10	X11	Y11	Z11	X12	Y12	Z12	X13	Y13	Z13	X14	Y14	Z14	X15	Y15	Z15	X16	Y16	Z16	X17	Y17	Z17	X18	Y18	Z18	X19	Y19	Z19	X20	Y20	Z20	X21	Y21	Z21	X22	Y22	Z22	X23	Y23	Z23	X24	Y24	Z24	X25	Y25	Z25
48	0.7833333333333333	0.3205389	1.5567226	-0.5694525	0.3572361	1.3935729	-0.7427413	0.2621196	1.3825266	-0.6539196	0.4287468	1.4045419	-0.3925177	0.5561263	1.6281422	-0.4623565	0.4956293	1.4451964	-0.7897617	0.7417179	1.52197	-0.701691	0.6132989	1.6696782	-0.5272637	0.3710459	0.8871976	-0.7531199	0.268366	0.8997744	-0.719553	0.1442561	0.5033203	-0.5766342	-0.0437897	0.218659	-0.8331902	0.4768845	0.8869387	-0.7850647	0.5529813	0.4839955	-0.6184329	0.5394131	0.0973892	-0.7906474	0.2889578	1.5723608	-0.5954722	0.3397378	1.5949669	-0.5818638	0.2738579	1.5429376	-0.695021	0.4121467	1.6021016	-0.6632282	0.5738754	0.0066047	-0.6357943	0.5992634	0.012846	-0.671567	0.5280188	0.0757095	-0.8298066	-0.0727054	0.0611098	-0.7428812	-0.1017207	0.0882314	-0.7648798	-0.033909	0.2169124	-0.8747433
49	0.8	0.3230892	1.5493733	-0.5645391	0.3555366	1.3875766	-0.7395276	0.2630768	1.3759428	-0.6479148	0.4369259	1.3984952	-0.391088	0.5593148	1.623754	-0.4642972	0.4916321	1.4400787	-0.791134	0.7402359	1.5183983	-0.7120627	0.6148769	1.6633303	-0.5334024	0.3748532	0.8814118	-0.7451138	0.273393	0.8927471	-0.7073547	0.1680877	0.4989759	-0.5427244	-0.019661	0.1861535	-0.7636931	0.4792156	0.8819983	-0.7818335	0.563648	0.4779029	-0.620598	0.540286	0.090197	-0.7899309	0.2907341	1.5652046	-0.589462	0.3418365	1.5878026	-0.5770698	0.2728449	1.5368391	-0.6888335	0.4118514	1.5959933	-0.6604295	0.5838436	0.0022972	-0.6353779	0.6067761	0.0078652	-0.673139	0.5270776	0.0676588	-0.8276395	-0.0389253	0.0387651	-0.6545069	-0.0695887	0.0628287	-0.6771945	-0.0123645	0.1798416	-0.8059642
50	0.8166666666666667	0.3242176	1.5497209	-0.5658195	0.3586549	1.3884674	-0.7403803	0.2649849	1.3774264	-0.6501752	0.4366507	1.4000448	-0.3917427	0.5595349	1.6249264	-0.465011	0.4953296	1.4403964	-0.7908365	0.7441788	1.5178427	-0.7124761	0.6175731	1.6632508	-0.535341	0.378784	0.8821035	-0.7449169	0.2762587	0.8928044	-0.7099966	0.1689232	0.4965505	-0.5518438	-0.0036938	0.1812819	-0.781073	0.4840982	0.8831023	-0.7788374	0.5633122	0.4767821	-0.6200561	0.543373	0.0899734	-0.7916996	0.2922759	1.5658419	-0.5910911	0.3432651	1.5881696	-0.5778151	0.2757267	1.5382438	-0.6909466	0.414507	1.5966811	-0.6601546	0.5836264	0.0028961	-0.6356289	0.6072787	0.0083784	-0.6729162	0.5313005	0.067209	-0.8296288	-0.0280968	0.034789	-0.671526	-0.0575399	0.0585561	-0.6957819	0.0055807	0.1745467	-0.823113
51	0.8333333333333334	0.3258369	1.5487913	-0.5683454	0.359998	1.3870889	-0.7422419	0.265931	1.3769284	-0.652296	0.4371136	1.3978198	-0.3932904	0.5623531	1.6211803	-0.4669161	0.4969146	1.4380203	-0.7928602	0.7461969	1.5144137	-0.715282	0.6195396	1.6610467	-0.5393388	0.3784819	0.880448	-0.7439063	0.2758495	0.8914932	-0.7094855	0.1658351	0.4961829	-0.5510306	-0.00473	0.1813085	-0.782053	0.4839294	0.8811414	-0.7774087	0.5611017	0.4737731	-0.6206368	0.5416895	0.0873697	-0.7931356	0.2940292	1.5650766	-0.5936882	0.3451009	1.5871413	-0.580296	0.2775807	1.5375662	-0.6935821	0.4165735	1.5952878	-0.6625122	0.5814318	0.0014994	-0.6360968	0.6052637	0.00677	-0.6734099	0.5299307	0.0643177	-0.8309601	-0.0326007	0.0358139	-0.6720088	-0.0613989	0.0596936	-0.6968093	0.0051886	0.1742009	-0.8240408
52	0.85	0.3235944	1.5492207	-0.5698043	0.3586715	1.3876144	-0.7435117	0.2632028	1.3777738	-0.6547006	0.4306344	1.396385	-0.3929632	0.5582974	1.6189079	-0.4645688	0.4964059	1.4378543	-0.7927776	0.745168	1.5126696	-0.7120612	0.6169064	1.6606772	-0.5385436	0.3772519	0.8806843	-0.7439889	0.2740783	0.891395	-0.7110249	0.1628982	0.4959088	-0.5538304	-0.0007542	0.1826457	-0.7916548	0.4831854	0.8817388	-0.7759566	0.5588459	0.4733126	-0.621692	0.54521	0.0881078	-0.7973975	0.2920308	1.5657344	-0.5953124	0.3431206	1.5875094	-0.581502	0.2761229	1.5385827	-0.6954292	0.4152066	1.5955564	-0.6632534	0.5819079	0.0027069	-0.6391664	0.6065406	0.0080917	-0.6760727	0.5346001	0.0649694	-0.8354531	-0.0307555	0.0359588	-0.683818	-0.0590047	0.059992	-0.7089928	0.0101624	0.1759558	-0.8335554
53	0.8666666666666667	0.3309591	1.551173	-0.5550827	0.3564996	1.3912774	-0.7319204	0.265754	1.3805552	-0.638006	0.4464065	1.3974165	-0.3850871	0.5684955	1.6210964	-0.4622273	0.4915043	1.4420078	-0.7883717	0.7438828	1.5155671	-0.7181239	0.6238619	1.6634336	-0.538716	0.374972	0.8843856	-0.7328889	0.274064	0.895816	-0.6938691	0.1682904	0.5040158	-0.5253577	-0.014219	0.1961858	-0.7562753	0.4788267	0.8849674	-0.7710257	0.56164	0.4760747	-0.6223879	0.5405032	0.0906662	-0.7970237	0.2978735	1.567857	-0.5784698	0.3496428	1.5896521	-0.5675033	0.2760327	1.5417175	-0.6777791	0.4167065	1.5988362	-0.6534019	0.5844442	0.0065563	-0.6397486	0.607457	0.0116658	-0.677952	0.5283065	0.067349	-0.8344158	-0.0395804	0.0484205	-0.6488705	-0.0690363	0.0731486	-0.6719643	-0.0058098	0.1899466	-0.79886
54	0.8833333333333333	0.3284881	1.5494965	-0.5549285	0.3564703	1.3910775	-0.7324049	0.2649202	1.3796552	-0.6392751	0.4439399	1.3945801	-0.384977	0.5654504	1.6191764	-0.4600921	0.4922653	1.4421582	-0.7871728	0.7434322	1.5144908	-0.7114683	0.6208248	1.6631116	-0.5344361	0.3762412	0.8841565	-0.734744	0.2748857	0.8952239	-0.6967332	0.1683324	0.503394	-0.5288389	-0.0105835	0.1986825	-0.7664731	0.4805287	0.8850777	-0.7717259	0.5609397	0.4748783	-0.6254362	0.5424684	0.0902905	-0.8021942	0.2956488	1.5663204	-0.5785536	0.3472132	1.58814	-0.5667511	0.275074	1.541079	-0.678361	0.4153149	1.5983324	-0.6518073	0.5832057	0.006083	-0.6439552	0.6068911	0.0111887	-0.6817945	0.5311302	0.0670712	-0.8398716	-0.036195	0.0489691	-0.661905	-0.0654513	0.07394	-0.6849316	-0.0017174	0.1931976	-0.8090284
55	0.9	0.3250478	1.5488446	-0.5631747	0.3583476	1.3908299	-0.739659	0.2648911	1.3792806	-0.6484405	0.4391156	1.3914618	-0.3905024	0.5620542	1.6165483	-0.4615811	0.4958687	1.4416229	-0.7906385	0.7441212	1.5121528	-0.7040594	0.616056	1.6620264	-0.5319095	0.3782376	0.8838511	-0.7391517	0.2763189	0.894955	-0.7024585	0.1708213	0.505932	-0.5275523	-0.0047179	0.1981778	-0.7636582	0.4830184	0.8846783	-0.7747779	0.5612448	0.4751337	-0.625706	0.5452541	0.0891558	-0.799861	0.2930818	1.5657789	-0.5878618	0.3442063	1.5875096	-0.574206	0.2759598	1.5409116	-0.688307	0.4152404	1.5979381	-0.6568625	0.5833383	0.0063816	-0.6400859	0.6075215	0.0110815	-0.6777132	0.5346231	0.0656447	-0.8375008	-0.0288748	0.0482115	-0.6590965	-0.0582092	0.0728745	-0.6822435	0.0042928	0.1926769	-0.8061337
56	0.9166666666666666	0.3281975	1.5501668	-0.5658842	0.3594323	1.3910507	-0.7414837	0.2673602	1.3801464	-0.6486381	0.4451664	1.3907636	-0.3929172	0.5682715	1.6153942	-0.465024	0.4968558	1.4407921	-0.7942368	0.7458326	1.5088625	-0.7072551	0.620147	1.6617119	-0.5358561	0.377589	0.8840054	-0.7364647	0.2765954	0.8957691	-0.6972395	0.1781504	0.512024	-0.5074023	-0.0050275	0.1997004	-0.73131	0.4814741	0.884137	-0.7747137	0.5616949	0.4757977	-0.6235208	0.5397406	0.0886981	-0.7948577	0.2961743	1.5670661	-0.5904905	0.3474324	1.5887008	-0.5772332	0.2784269	1.5416976	-0.6905976	0.4180835	1.5984398	-0.6603587	0.5815243	0.0063285	-0.6357142	0.6046296	0.0106777	-0.6741415	0.5281218	0.0651305	-0.8320482	-0.0237577	0.0500474	-0.6252443	-0.0540322	0.0744033	-0.6473329	0.0023577	0.1939557	-0.7740427
57	0.9333333333333333	0.3231187	1.550652	-0.5691868	0.3596018	1.3906956	-0.7429396	0.2658125	1.3792372	-0.6518011	0.4387024	1.3897829	-0.3927519	0.562269	1.6149426	-0.4621902	0.4984169	1.4407227	-0.7926558	0.7453783	1.5074189	-0.6987727	0.6164114	1.6620021	-0.5313576	0.3793098	0.8836206	-0.7392119	0.2773553	0.8948957	-0.7022188	0.1763366	0.509778	-0.5162203	-1.22e-05	0.2041414	-0.7544149	0.4841219	0.884163	-0.7749556	0.560589	0.4755949	-0.6223338	0.5421335	0.0885339	-0.7939664	0.2916563	1.56713	-0.5947626	0.3423915	1.5892261	-0.5803388	0.2767328	1.5408417	-0.6950192	0.4152044	1.598835	-0.6616455	0.5804028	0.0052701	-0.6344401	0.6042798	0.0098224	-0.6721975	0.5313821	0.0652435	-0.8316396	-0.0199175	0.049055	-0.6571513	-0.049736	0.0742198	-0.678969	0.0086344	0.2006227	-0.7968452
